<svg xmlns="http://www.w3.org/2000/svg" xmlns:xlink="http://www.w3.org/1999/xlink" viewBox="0 0 48 48" width="48" height="48" preserveAspectRatio="xMidYMid meet" style="width: 100%; height: 100%; transform: translate3d(0px, 0px, 0px); content-visibility: visible;"><defs><clipPath id="__lottie_element_2"><rect width="48" height="48" x="0" y="0"></rect></clipPath><clipPath id="__lottie_element_22"><path fill="#ffffff" clip-rule="nonzero" d=" M-7,0.5 C-7,0.5 -7,9.146751403808594 -7,9.146751403808594 C-7,9.146751403808594 7,9.146751403808594 7,9.146751403808594 C7,9.146751403808594 7,0.5 7,0.5 C7,0.5 -7,0.5 -7,0.5" fill-opacity="1"></path></clipPath></defs><g clip-path="url(#__lottie_element_2)"><g transform="matrix(-1,0,0,-1,24,24.049999237060547)" opacity="1" style="display: block;"><g opacity="1" transform="matrix(1,0,0,1,0,0)"><path fill="rgb(187,222,251)" fill-opacity="1" d=" M2.4000000953674316,-0.05000000074505806 C5,-2.6500000953674316 9,-6.949999809265137 9,-10.25 C9,-15.25 5,-18.149999618530273 0,-18.149999618530273 C-5,-18.149999618530273 -9,-15.25 -9,-10.25 C-9,-6.949999809265137 -5,-2.549999952316284 -2.4000000953674316,0.05000000074505806 C-5,2.549999952316284 -9,6.849999904632568 -9,10.25 C-9,15.25 -5,18.149999618530273 0,18.149999618530273 C5,18.149999618530273 9,15.25 9,10.25 C9,6.849999904632568 5,2.549999952316284 2.4000000953674316,-0.05000000074505806z"></path></g></g><g transform="matrix(-0.40385812520980835,0.9148216247558594,-0.9148216247558594,-0.40385812520980835,14.851783752441406,20.011417388916016)" opacity="1" style="display: none;"><g opacity="1" transform="matrix(1,0,0,1,0,0)"><path fill="rgb(255,152,0)" fill-opacity="1" d=" M0,-0.044807299971580505 C2.700000047683716,-0.044807299971580505 5.001073837280273,-0.04628394544124603 6.999597072601318,-0.05017692223191261 C6.584944725036621,-3.0495057106018066 2.700000047683716,-7.04829740524292 0,-9.548297882080078 C-2.700000047683716,-7.04829740524292 -6.300327301025391,-3.2532317638397217 -6.999597072601318,-0.05017692223191261 C-5.001073837280273,-0.04628394544124603 -2.700000047683716,-0.044807299971580505 0,-0.044807299971580505z"></path></g></g><g style="display: none;" transform="matrix(1,0,0,1,24,34.04999923706055)" opacity="1"><g opacity="1" transform="matrix(1,0,0,1,0,0)"><path fill="rgb(255,152,0)" fill-opacity="1" d=" M0,6.050000190734863 C2.700000047683716,6.050000190734863 5.800000190734863,4.949999809265137 6.699999809265137,2.049999952316284 C5.800000190734863,-0.44999998807907104 2.700000047683716,-3.549999952316284 0,-6.050000190734863 C-2.700000047683716,-3.549999952316284 -5.800000190734863,-0.44999998807907104 -6.699999809265137,2.049999952316284 C-5.800000190734863,4.949999809265137 -2.700000047683716,6.050000190734863 0,6.050000190734863z"></path></g></g><g transform="matrix(-0.9995595812797546,-0.02967628836631775,0.02967628836631775,-0.9995595812797546,27.414087295532227,34.10574722290039)" opacity="1" style="display: none;"><g opacity="1" transform="matrix(1,0,0,1,0,0)"><path fill="rgb(255,255,255)" fill-opacity="1" d=" M-0.38824591040611267,-5.703280448913574 C-0.38824591040611267,-5.703280448913574 -0.41748160123825073,-5.690987586975098 -0.41748160123825073,-5.790987491607666 C-2.8004815578460693,-3.5749876499176025 -2.222468614578247,2.6889498233795166 1.7109999656677246,5.900000095367432 C-0.9890000224113464,3.694000005722046 -3.5480000972747803,-1.0269999504089355 -0.5889999866485596,-5.800000190734863 C-0.48899999260902405,-5.900000095367432 -0.48899999260902405,-5.900000095367432 -0.48899999260902405,-5.900000095367432 C-0.48899999260902405,-5.900000095367432 -0.38824591040611267,-5.703280448913574 -0.38824591040611267,-5.703280448913574z"></path></g></g><g style="display: none;" transform="matrix(1,0,0,1,20.288999557495117,14.100000381469727)" opacity="1"><g opacity="1" transform="matrix(1,0,0,1,0,0)"><path fill="rgb(255,255,255)" fill-opacity="1" d=" M1.9110000133514404,-4.199999809265137 C1.9110000133514404,-4.199999809265137 1.9110000133514404,-4.099999904632568 1.9110000133514404,-4.199999809265137 C-0.47200000286102295,-1.9839999675750732 -1.1200000047683716,2.190999984741211 1.7109999656677246,5.900000095367432 C-0.9890000224113464,3.694000005722046 -3.5480000972747803,-1.0269999504089355 -0.5889999866485596,-5.800000190734863 C-0.48899999260902405,-5.900000095367432 -0.48899999260902405,-5.900000095367432 -0.48899999260902405,-5.900000095367432 C-0.48899999260902405,-5.900000095367432 1.9110000133514404,-4.199999809265137 1.9110000133514404,-4.199999809265137z"></path></g></g><g clip-path="url(#__lottie_element_22)" style="display: block;" transform="matrix(-1,0,0,-1,23.99799919128418,24.099998474121094)" opacity="1"><g opacity="1" transform="matrix(1,0,0,1,0,0)"><path fill="rgb(255,152,0)" fill-opacity="1" d=" M7,10 C6.800000190734863,7.5 3.200000047683716,3.4000000953674316 0,0.5 C-3.0999999046325684,3.299999952316284 -6.699999809265137,7.5 -7,10 C-7,10 7,10 7,10z"></path></g></g><g style="display: none;" transform="matrix(1,0,0,1,24,27.049999237060547)" opacity="1"><g opacity="1" transform="matrix(1,0,0,1,0,0)"><path fill="rgb(255,152,0)" fill-opacity="1" d=" M0,4.000999927520752 C-0.5519999861717224,4.000999927520752 -1,4.448999881744385 -1,5.000999927520752 C-1,5.552999973297119 -0.5519999861717224,6.000999927520752 0,6.000999927520752 C0.5519999861717224,6.000999927520752 1,5.552999973297119 1,5.000999927520752 C1,4.448999881744385 0.5519999861717224,4.000999927520752 0,4.000999927520752z"></path></g></g><g style="display: block;" transform="matrix(1,0,0,1,24,24)" opacity="1"><g opacity="1" transform="matrix(1,0,0,1,0,0)"><path fill="rgb(255,152,0)" fill-opacity="1" d=" M0,4.000999927520752 C-0.5519999861717224,4.000999927520752 -1,4.448999881744385 -1,5.000999927520752 C-1,5.552999973297119 -0.5519999861717224,6.000999927520752 0,6.000999927520752 C0.5519999861717224,6.000999927520752 1,5.552999973297119 1,5.000999927520752 C1,4.448999881744385 0.5519999861717224,4.000999927520752 0,4.000999927520752z"></path></g></g><g style="display: block;" transform="matrix(1,0,0,1,24,24)" opacity="1"><g opacity="1" transform="matrix(1,0,0,1,0,0)"><path fill="rgb(255,152,0)" fill-opacity="1" d=" M0,1.0010000467300415 C-0.5519999861717224,1.0010000467300415 -1,1.4490000009536743 -1,2.000999927520752 C-1,2.552999973297119 -0.5519999861717224,3.000999927520752 0,3.000999927520752 C0.5519999861717224,3.000999927520752 1,2.552999973297119 1,2.000999927520752 C1,1.4490000009536743 0.5519999861717224,1.0010000467300415 0,1.0010000467300415z"></path></g></g><g style="display: none;" transform="matrix(1,0,0,1,24,24)" opacity="1"><g opacity="1" transform="matrix(1,0,0,1,0,0)"><path fill="rgb(255,152,0)" fill-opacity="1" d=" M-0.0950242206454277,-0.6013287305831909 C-0.07647465914487839,-0.5770975351333618 -0.03633328899741173,-0.5470766425132751 0,-0.5249387621879578 C0.03633328899741173,-0.5470868349075317 0.07646444439888,-0.5770975351333618 0.0950242206454277,-0.6013287305831909 C0.0950242206454277,-0.6013287305831909 -0.0950242206454277,-0.6013287305831909 -0.0950242206454277,-0.6013287305831909z"></path></g></g><g transform="matrix(-1,0,0,-1,24,24.099998474121094)" opacity="1" style="display: block;"><g opacity="1" transform="matrix(1,0,0,1,0,0)"><path fill="rgb(109,76,65)" fill-opacity="1" d=" M9,19 C9,19.600000381469727 8.600000381469727,20 8,20 C8,20 -8,20 -8,20 C-8.600000381469727,20 -9,19.600000381469727 -9,19 C-9,19 -9,15 -9,15 C-9,14.399999618530273 -8.600000381469727,14 -8,14 C-8,14 8,14 8,14 C8.600000381469727,14 9,14.399999618530273 9,15 C9,15 9,19 9,19z M9,-19 C9,-19.600000381469727 8.600000381469727,-20 8,-20 C8,-20 -8,-20 -8,-20 C-8.600000381469727,-20 -9,-19.600000381469727 -9,-19 C-9,-19 -9,-15 -9,-15 C-9,-14.399999618530273 -8.600000381469727,-14 -8,-14 C-8,-14 8,-14 8,-14 C8.600000381469727,-14 9,-14.399999618530273 9,-15 C9,-15 9,-19 9,-19z"></path></g><g opacity="1" transform="matrix(1,0,0,1,0,0)"><path fill="rgb(141,110,99)" fill-opacity="1" d=" M12,19 C12,19.600000381469727 11.600000381469727,20 11,20 C11,20 -11,20 -11,20 C-11.600000381469727,20 -12,19.600000381469727 -12,19 C-12,19 -12,18 -12,18 C-12,17.399999618530273 -11.600000381469727,17 -11,17 C-11,17 11,17 11,17 C11.600000381469727,17 12,17.399999618530273 12,18 C12,18 12,19 12,19z M12,-19 C12,-19.600000381469727 11.600000381469727,-20 11,-20 C11,-20 -11,-20 -11,-20 C-11.600000381469727,-20 -12,-19.600000381469727 -12,-19 C-12,-19 -12,-18 -12,-18 C-12,-17.399999618530273 -11.600000381469727,-17 -11,-17 C-11,-17 11,-17 11,-17 C11.600000381469727,-17 12,-17.399999618530273 12,-18 C12,-18 12,-19 12,-19z"></path></g></g></g></svg>